<mxfile host="app.diagrams.net" agent="Mozilla/5.0 (Windows NT 10.0; Win64; x64) AppleWebKit/537.36 (KHTML, like Gecko) Chrome/139.0.0.0 Safari/537.36" version="28.0.9">
  <diagram name="Page-1" id="BNmTlnDu3fxt7HeorDhI">
    <mxGraphModel dx="1025" dy="417" grid="1" gridSize="10" guides="1" tooltips="1" connect="1" arrows="1" fold="1" page="1" pageScale="1" pageWidth="850" pageHeight="1100" math="0" shadow="0">
      <root>
        <mxCell id="0" />
        <mxCell id="1" parent="0" />
        <mxCell id="bRZ4js3Sh1iDFJ2J73R_-1" value="HIU/HIP/PHR" style="shape=umlActor;verticalLabelPosition=bottom;verticalAlign=top;html=1;outlineConnect=0;" parent="1" vertex="1">
          <mxGeometry x="40" y="40" width="30" height="60" as="geometry" />
        </mxCell>
        <mxCell id="bRZ4js3Sh1iDFJ2J73R_-2" value="ABHA Enrollment" style="rounded=0;whiteSpace=wrap;html=1;" parent="1" vertex="1">
          <mxGeometry x="160" y="40" width="120" height="40" as="geometry" />
        </mxCell>
        <mxCell id="bRZ4js3Sh1iDFJ2J73R_-3" value="Aadhaar Service" style="rounded=0;whiteSpace=wrap;html=1;" parent="1" vertex="1">
          <mxGeometry x="400" y="40" width="120" height="40" as="geometry" />
        </mxCell>
        <mxCell id="bRZ4js3Sh1iDFJ2J73R_-4" value="AUA" style="rounded=0;whiteSpace=wrap;html=1;" parent="1" vertex="1">
          <mxGeometry x="600" y="40" width="40" height="40" as="geometry" />
        </mxCell>
        <mxCell id="bRZ4js3Sh1iDFJ2J73R_-5" value="ABHA DB" style="rounded=0;whiteSpace=wrap;html=1;" parent="1" vertex="1">
          <mxGeometry x="700" y="40" width="120" height="40" as="geometry" />
        </mxCell>
        <mxCell id="bRZ4js3Sh1iDFJ2J73R_-6" value="" style="endArrow=none;dashed=1;html=1;rounded=0;" parent="1" edge="1">
          <mxGeometry width="50" height="50" relative="1" as="geometry">
            <mxPoint x="50" y="800" as="sourcePoint" />
            <mxPoint x="50" y="120" as="targetPoint" />
          </mxGeometry>
        </mxCell>
        <mxCell id="bRZ4js3Sh1iDFJ2J73R_-7" value="" style="endArrow=none;dashed=1;html=1;rounded=0;" parent="1" edge="1">
          <mxGeometry width="50" height="50" relative="1" as="geometry">
            <mxPoint x="220" y="800" as="sourcePoint" />
            <mxPoint x="219.5" y="80" as="targetPoint" />
          </mxGeometry>
        </mxCell>
        <mxCell id="bRZ4js3Sh1iDFJ2J73R_-8" value="" style="endArrow=none;dashed=1;html=1;rounded=0;" parent="1" edge="1">
          <mxGeometry width="50" height="50" relative="1" as="geometry">
            <mxPoint x="460" y="800" as="sourcePoint" />
            <mxPoint x="459.5" y="80" as="targetPoint" />
          </mxGeometry>
        </mxCell>
        <mxCell id="bRZ4js3Sh1iDFJ2J73R_-9" value="" style="endArrow=none;dashed=1;html=1;rounded=0;" parent="1" edge="1">
          <mxGeometry width="50" height="50" relative="1" as="geometry">
            <mxPoint x="620" y="800" as="sourcePoint" />
            <mxPoint x="619.5" y="80" as="targetPoint" />
          </mxGeometry>
        </mxCell>
        <mxCell id="bRZ4js3Sh1iDFJ2J73R_-10" value="" style="endArrow=none;dashed=1;html=1;rounded=0;" parent="1" edge="1">
          <mxGeometry width="50" height="50" relative="1" as="geometry">
            <mxPoint x="760" y="800" as="sourcePoint" />
            <mxPoint x="759.5" y="80" as="targetPoint" />
          </mxGeometry>
        </mxCell>
        <mxCell id="bRZ4js3Sh1iDFJ2J73R_-11" value="" style="endArrow=classic;html=1;rounded=0;" parent="1" edge="1">
          <mxGeometry width="50" height="50" relative="1" as="geometry">
            <mxPoint x="50" y="160" as="sourcePoint" />
            <mxPoint x="220" y="160" as="targetPoint" />
          </mxGeometry>
        </mxCell>
        <mxCell id="bRZ4js3Sh1iDFJ2J73R_-12" value="" style="endArrow=classic;html=1;rounded=0;" parent="1" edge="1">
          <mxGeometry width="50" height="50" relative="1" as="geometry">
            <mxPoint x="220" y="185" as="sourcePoint" />
            <mxPoint x="460" y="185" as="targetPoint" />
          </mxGeometry>
        </mxCell>
        <mxCell id="bRZ4js3Sh1iDFJ2J73R_-13" value="" style="endArrow=classic;html=1;rounded=0;" parent="1" edge="1">
          <mxGeometry width="50" height="50" relative="1" as="geometry">
            <mxPoint x="460" y="210" as="sourcePoint" />
            <mxPoint x="620" y="210" as="targetPoint" />
          </mxGeometry>
        </mxCell>
        <mxCell id="bRZ4js3Sh1iDFJ2J73R_-14" value="" style="endArrow=classic;html=1;rounded=0;" parent="1" edge="1">
          <mxGeometry width="50" height="50" relative="1" as="geometry">
            <mxPoint x="620" y="240" as="sourcePoint" />
            <mxPoint x="460" y="240" as="targetPoint" />
          </mxGeometry>
        </mxCell>
        <mxCell id="bRZ4js3Sh1iDFJ2J73R_-15" value="" style="endArrow=classic;html=1;rounded=0;" parent="1" edge="1">
          <mxGeometry width="50" height="50" relative="1" as="geometry">
            <mxPoint x="460" y="270" as="sourcePoint" />
            <mxPoint x="50" y="270" as="targetPoint" />
          </mxGeometry>
        </mxCell>
        <mxCell id="bRZ4js3Sh1iDFJ2J73R_-16" value="OTP Sent" style="html=1;verticalAlign=bottom;endArrow=open;dashed=1;endSize=8;curved=0;rounded=0;" parent="1" edge="1">
          <mxGeometry relative="1" as="geometry">
            <mxPoint x="620" y="307" as="sourcePoint" />
            <mxPoint x="50" y="307" as="targetPoint" />
          </mxGeometry>
        </mxCell>
        <mxCell id="bRZ4js3Sh1iDFJ2J73R_-17" value="" style="endArrow=classic;html=1;rounded=0;" parent="1" edge="1">
          <mxGeometry width="50" height="50" relative="1" as="geometry">
            <mxPoint x="50" y="350" as="sourcePoint" />
            <mxPoint x="220" y="350" as="targetPoint" />
          </mxGeometry>
        </mxCell>
        <mxCell id="bRZ4js3Sh1iDFJ2J73R_-18" value="" style="endArrow=classic;html=1;rounded=0;" parent="1" edge="1">
          <mxGeometry width="50" height="50" relative="1" as="geometry">
            <mxPoint x="220" y="374" as="sourcePoint" />
            <mxPoint x="460" y="374" as="targetPoint" />
          </mxGeometry>
        </mxCell>
        <mxCell id="bRZ4js3Sh1iDFJ2J73R_-19" value="" style="endArrow=classic;html=1;rounded=0;" parent="1" edge="1">
          <mxGeometry width="50" height="50" relative="1" as="geometry">
            <mxPoint x="460" y="395" as="sourcePoint" />
            <mxPoint x="620" y="395" as="targetPoint" />
          </mxGeometry>
        </mxCell>
        <mxCell id="bRZ4js3Sh1iDFJ2J73R_-20" value="" style="endArrow=classic;html=1;rounded=0;" parent="1" edge="1">
          <mxGeometry width="50" height="50" relative="1" as="geometry">
            <mxPoint x="620" y="435" as="sourcePoint" />
            <mxPoint x="460" y="435" as="targetPoint" />
          </mxGeometry>
        </mxCell>
        <mxCell id="bRZ4js3Sh1iDFJ2J73R_-21" value="" style="html=1;points=[[0,0,0,0,5],[0,1,0,0,-5],[1,0,0,0,5],[1,1,0,0,-5]];perimeter=orthogonalPerimeter;outlineConnect=0;targetShapes=umlLifeline;portConstraint=eastwest;newEdgeStyle={&quot;curved&quot;:0,&quot;rounded&quot;:0};" parent="1" vertex="1">
          <mxGeometry x="615" y="411" width="10" height="40" as="geometry" />
        </mxCell>
        <mxCell id="bRZ4js3Sh1iDFJ2J73R_-22" value="" style="html=1;align=left;spacingLeft=2;endArrow=block;rounded=0;edgeStyle=orthogonalEdgeStyle;curved=0;rounded=0;" parent="1" edge="1">
          <mxGeometry relative="1" as="geometry">
            <mxPoint x="620" y="395" as="sourcePoint" />
            <Array as="points">
              <mxPoint x="650" y="425" />
            </Array>
            <mxPoint x="625" y="425" as="targetPoint" />
          </mxGeometry>
        </mxCell>
        <mxCell id="bRZ4js3Sh1iDFJ2J73R_-23" value="" style="endArrow=classic;html=1;rounded=0;" parent="1" edge="1">
          <mxGeometry width="50" height="50" relative="1" as="geometry">
            <mxPoint x="460" y="474" as="sourcePoint" />
            <mxPoint x="220" y="474" as="targetPoint" />
          </mxGeometry>
        </mxCell>
        <mxCell id="bRZ4js3Sh1iDFJ2J73R_-25" value="" style="endArrow=classic;html=1;rounded=0;" parent="1" edge="1">
          <mxGeometry width="50" height="50" relative="1" as="geometry">
            <mxPoint x="220" y="560" as="sourcePoint" />
            <mxPoint x="460" y="560" as="targetPoint" />
          </mxGeometry>
        </mxCell>
        <mxCell id="bRZ4js3Sh1iDFJ2J73R_-26" value="" style="endArrow=classic;html=1;rounded=0;" parent="1" edge="1">
          <mxGeometry width="50" height="50" relative="1" as="geometry">
            <mxPoint x="459" y="590" as="sourcePoint" />
            <mxPoint x="619" y="590" as="targetPoint" />
          </mxGeometry>
        </mxCell>
        <mxCell id="bRZ4js3Sh1iDFJ2J73R_-27" value="" style="endArrow=classic;html=1;rounded=0;" parent="1" edge="1">
          <mxGeometry width="50" height="50" relative="1" as="geometry">
            <mxPoint x="619" y="620" as="sourcePoint" />
            <mxPoint x="459" y="620" as="targetPoint" />
          </mxGeometry>
        </mxCell>
        <mxCell id="bRZ4js3Sh1iDFJ2J73R_-28" value="" style="endArrow=classic;html=1;rounded=0;" parent="1" edge="1">
          <mxGeometry width="50" height="50" relative="1" as="geometry">
            <mxPoint x="220" y="680" as="sourcePoint" />
            <mxPoint x="760" y="680" as="targetPoint" />
          </mxGeometry>
        </mxCell>
        <mxCell id="bRZ4js3Sh1iDFJ2J73R_-29" value="" style="endArrow=classic;html=1;rounded=0;" parent="1" edge="1">
          <mxGeometry width="50" height="50" relative="1" as="geometry">
            <mxPoint x="760" y="720" as="sourcePoint" />
            <mxPoint x="220" y="720" as="targetPoint" />
          </mxGeometry>
        </mxCell>
        <mxCell id="bRZ4js3Sh1iDFJ2J73R_-30" value="" style="endArrow=classic;html=1;rounded=0;" parent="1" edge="1">
          <mxGeometry width="50" height="50" relative="1" as="geometry">
            <mxPoint x="220" y="760" as="sourcePoint" />
            <mxPoint x="50" y="760" as="targetPoint" />
          </mxGeometry>
        </mxCell>
        <mxCell id="bRZ4js3Sh1iDFJ2J73R_-32" value="&lt;font style=&quot;font-size: 9px;&quot;&gt;{&quot;loginHint&quot;:&quot;aadhaar&quot;,&lt;/font&gt;&lt;div&gt;&lt;font style=&quot;font-size: 9px;&quot;&gt;&quot;loginid&quot;: &quot;xxxxxx&quot;,&lt;/font&gt;&lt;font style=&quot;background-color: initial; font-size: 9px;&quot;&gt;......&lt;/font&gt;&lt;span style=&quot;background-color: initial; font-size: 9px;&quot;&gt;}&lt;/span&gt;&lt;/div&gt;" style="text;html=1;align=center;verticalAlign=middle;resizable=0;points=[];autosize=1;strokeColor=none;fillColor=none;" parent="1" vertex="1">
          <mxGeometry x="80" y="120" width="110" height="40" as="geometry" />
        </mxCell>
        <mxCell id="bRZ4js3Sh1iDFJ2J73R_-33" value="&lt;font style=&quot;font-size: 9px;&quot;&gt;(POST: api/v3/enrollment/request/otp)&lt;/font&gt;" style="text;html=1;align=center;verticalAlign=middle;resizable=0;points=[];autosize=1;strokeColor=none;fillColor=none;" parent="1" vertex="1">
          <mxGeometry x="48" y="158" width="170" height="30" as="geometry" />
        </mxCell>
        <mxCell id="bRZ4js3Sh1iDFJ2J73R_-34" value="&lt;font style=&quot;font-size: 9px;&quot;&gt;Aadhaar Details&lt;/font&gt;" style="text;html=1;align=center;verticalAlign=middle;resizable=0;points=[];autosize=1;strokeColor=none;fillColor=none;" parent="1" vertex="1">
          <mxGeometry x="285" y="158" width="90" height="30" as="geometry" />
        </mxCell>
        <mxCell id="bRZ4js3Sh1iDFJ2J73R_-35" value="&lt;font style=&quot;font-size: 9px;&quot;&gt;Aadhaar Details&lt;/font&gt;" style="text;html=1;align=center;verticalAlign=middle;resizable=0;points=[];autosize=1;strokeColor=none;fillColor=none;" parent="1" vertex="1">
          <mxGeometry x="494" y="183" width="90" height="30" as="geometry" />
        </mxCell>
        <mxCell id="bRZ4js3Sh1iDFJ2J73R_-36" value="&lt;font style=&quot;font-size: 9px;&quot;&gt;Transaction ID (s2i***9s)&lt;/font&gt;" style="text;html=1;align=center;verticalAlign=middle;resizable=0;points=[];autosize=1;strokeColor=none;fillColor=none;" parent="1" vertex="1">
          <mxGeometry x="479" y="215" width="120" height="30" as="geometry" />
        </mxCell>
        <mxCell id="bRZ4js3Sh1iDFJ2J73R_-37" value="&lt;font style=&quot;font-size: 9px;&quot;&gt;Transaction ID&amp;nbsp;&lt;/font&gt;&lt;span style=&quot;font-size: 9px;&quot;&gt;(s2i***9s)&lt;/span&gt;" style="text;html=1;align=center;verticalAlign=middle;resizable=0;points=[];autosize=1;strokeColor=none;fillColor=none;" parent="1" vertex="1">
          <mxGeometry x="270" y="245" width="120" height="30" as="geometry" />
        </mxCell>
        <mxCell id="bRZ4js3Sh1iDFJ2J73R_-38" value="&lt;font style=&quot;forced-color-adjust: none; color: rgb(0, 0, 0); font-family: Helvetica; font-style: normal; font-variant-ligatures: normal; font-variant-caps: normal; font-weight: 400; letter-spacing: normal; orphans: 2; text-align: center; text-indent: 0px; text-transform: none; widows: 2; word-spacing: 0px; -webkit-text-stroke-width: 0px; white-space: nowrap; background-color: rgb(251, 251, 251); text-decoration-thickness: initial; text-decoration-style: initial; text-decoration-color: initial; font-size: 9px;&quot;&gt;{&quot;otp&quot;:&quot;enc(12344)&quot;,&lt;/font&gt;&lt;div style=&quot;forced-color-adjust: none; color: rgb(0, 0, 0); font-family: Helvetica; font-size: 12px; font-style: normal; font-variant-ligatures: normal; font-variant-caps: normal; font-weight: 400; letter-spacing: normal; orphans: 2; text-align: center; text-indent: 0px; text-transform: none; widows: 2; word-spacing: 0px; -webkit-text-stroke-width: 0px; white-space: nowrap; background-color: rgb(251, 251, 251); text-decoration-thickness: initial; text-decoration-style: initial; text-decoration-color: initial;&quot;&gt;&lt;font style=&quot;forced-color-adjust: none; font-size: 9px;&quot;&gt;&quot;txnId&quot;: &quot;s2i***9s&quot;,&lt;/font&gt;&lt;font style=&quot;forced-color-adjust: none; background-color: initial; font-size: 9px;&quot;&gt;......&lt;/font&gt;&lt;span style=&quot;forced-color-adjust: none; background-color: initial; font-size: 9px;&quot;&gt;}&lt;/span&gt;&lt;/div&gt;" style="text;whiteSpace=wrap;html=1;" parent="1" vertex="1">
          <mxGeometry x="80" y="310" width="120" height="50" as="geometry" />
        </mxCell>
        <mxCell id="bRZ4js3Sh1iDFJ2J73R_-39" value="&lt;font style=&quot;font-size: 9px;&quot;&gt;(POST: api/v3/enrollment/enrol/byAadhaar)&lt;/font&gt;" style="text;html=1;align=center;verticalAlign=middle;resizable=0;points=[];autosize=1;strokeColor=none;fillColor=none;" parent="1" vertex="1">
          <mxGeometry x="35" y="348" width="200" height="30" as="geometry" />
        </mxCell>
        <mxCell id="bRZ4js3Sh1iDFJ2J73R_-40" value="&lt;font style=&quot;forced-color-adjust: none; color: rgb(0, 0, 0); font-family: Helvetica; font-style: normal; font-variant-ligatures: normal; font-variant-caps: normal; font-weight: 400; letter-spacing: normal; orphans: 2; text-align: center; text-indent: 0px; text-transform: none; widows: 2; word-spacing: 0px; -webkit-text-stroke-width: 0px; white-space: nowrap; background-color: rgb(251, 251, 251); text-decoration-thickness: initial; text-decoration-style: initial; text-decoration-color: initial; font-size: 9px;&quot;&gt;{&quot;otp&quot;:&quot;enc(12344)&quot;,&lt;/font&gt;&lt;div style=&quot;forced-color-adjust: none; color: rgb(0, 0, 0); font-family: Helvetica; font-size: 12px; font-style: normal; font-variant-ligatures: normal; font-variant-caps: normal; font-weight: 400; letter-spacing: normal; orphans: 2; text-align: center; text-indent: 0px; text-transform: none; widows: 2; word-spacing: 0px; -webkit-text-stroke-width: 0px; white-space: nowrap; background-color: rgb(251, 251, 251); text-decoration-thickness: initial; text-decoration-style: initial; text-decoration-color: initial;&quot;&gt;&lt;font style=&quot;forced-color-adjust: none; font-size: 9px;&quot;&gt;&quot;txnId&quot;: &quot;s2i***9s&quot;,&lt;/font&gt;&lt;font style=&quot;forced-color-adjust: none; background-color: initial; font-size: 9px;&quot;&gt;......&lt;/font&gt;&lt;span style=&quot;forced-color-adjust: none; background-color: initial; font-size: 9px;&quot;&gt;}&lt;/span&gt;&lt;/div&gt;" style="text;whiteSpace=wrap;html=1;" parent="1" vertex="1">
          <mxGeometry x="285" y="323" width="120" height="50" as="geometry" />
        </mxCell>
        <mxCell id="bRZ4js3Sh1iDFJ2J73R_-41" value="&lt;font size=&quot;1&quot;&gt;Verify&lt;/font&gt;" style="text;html=1;align=center;verticalAlign=middle;resizable=0;points=[];autosize=1;strokeColor=none;fillColor=none;" parent="1" vertex="1">
          <mxGeometry x="305" y="352" width="50" height="30" as="geometry" />
        </mxCell>
        <mxCell id="bRZ4js3Sh1iDFJ2J73R_-42" value="&lt;font style=&quot;forced-color-adjust: none; color: rgb(0, 0, 0); font-family: Helvetica; font-style: normal; font-variant-ligatures: normal; font-variant-caps: normal; font-weight: 400; letter-spacing: normal; orphans: 2; text-align: center; text-indent: 0px; text-transform: none; widows: 2; word-spacing: 0px; -webkit-text-stroke-width: 0px; white-space: nowrap; background-color: rgb(251, 251, 251); text-decoration-thickness: initial; text-decoration-style: initial; text-decoration-color: initial; font-size: 9px;&quot;&gt;{&quot;otp&quot;:&quot;enc(12344)&quot;,&lt;/font&gt;&lt;div style=&quot;forced-color-adjust: none; color: rgb(0, 0, 0); font-family: Helvetica; font-size: 12px; font-style: normal; font-variant-ligatures: normal; font-variant-caps: normal; font-weight: 400; letter-spacing: normal; orphans: 2; text-align: center; text-indent: 0px; text-transform: none; widows: 2; word-spacing: 0px; -webkit-text-stroke-width: 0px; white-space: nowrap; background-color: rgb(251, 251, 251); text-decoration-thickness: initial; text-decoration-style: initial; text-decoration-color: initial;&quot;&gt;&lt;font style=&quot;forced-color-adjust: none; font-size: 9px;&quot;&gt;&quot;txnId&quot;: &quot;s2i***9s&quot;,&lt;/font&gt;&lt;font style=&quot;forced-color-adjust: none; background-color: initial; font-size: 9px;&quot;&gt;......&lt;/font&gt;&lt;span style=&quot;forced-color-adjust: none; background-color: initial; font-size: 9px;&quot;&gt;}&lt;/span&gt;&lt;/div&gt;" style="text;whiteSpace=wrap;html=1;" parent="1" vertex="1">
          <mxGeometry x="490" y="341" width="120" height="50" as="geometry" />
        </mxCell>
        <mxCell id="bRZ4js3Sh1iDFJ2J73R_-43" value="&lt;font size=&quot;1&quot;&gt;Verify&lt;/font&gt;" style="text;html=1;align=center;verticalAlign=middle;resizable=0;points=[];autosize=1;strokeColor=none;fillColor=none;" parent="1" vertex="1">
          <mxGeometry x="510" y="369" width="50" height="30" as="geometry" />
        </mxCell>
        <mxCell id="bRZ4js3Sh1iDFJ2J73R_-44" value="&lt;font size=&quot;1&quot;&gt;Verify details return &lt;br&gt;XML response&lt;/font&gt;" style="text;html=1;align=center;verticalAlign=middle;resizable=0;points=[];autosize=1;strokeColor=none;fillColor=none;" parent="1" vertex="1">
          <mxGeometry x="650" y="391" width="110" height="40" as="geometry" />
        </mxCell>
        <mxCell id="bRZ4js3Sh1iDFJ2J73R_-45" value="&lt;font style=&quot;font-size: 9px;&quot;&gt;Parse XML and send details&lt;/font&gt;" style="text;html=1;align=center;verticalAlign=middle;resizable=0;points=[];autosize=1;strokeColor=none;fillColor=none;" parent="1" vertex="1">
          <mxGeometry x="465" y="411" width="140" height="30" as="geometry" />
        </mxCell>
        <mxCell id="bRZ4js3Sh1iDFJ2J73R_-46" value="&lt;font style=&quot;font-size: 9px;&quot;&gt;Transaction ID, Auth Result&lt;/font&gt;" style="text;html=1;align=center;verticalAlign=middle;resizable=0;points=[];autosize=1;strokeColor=none;fillColor=none;" parent="1" vertex="1">
          <mxGeometry x="265" y="451" width="130" height="30" as="geometry" />
        </mxCell>
        <mxCell id="bRZ4js3Sh1iDFJ2J73R_-47" value="&lt;font style=&quot;font-size: 9px;&quot;&gt;Verify Mobile Number with Demographic details&lt;/font&gt;" style="text;html=1;align=center;verticalAlign=middle;resizable=0;points=[];autosize=1;strokeColor=none;fillColor=none;" parent="1" vertex="1">
          <mxGeometry x="230" y="535" width="210" height="30" as="geometry" />
        </mxCell>
        <mxCell id="bRZ4js3Sh1iDFJ2J73R_-48" value="&lt;font style=&quot;font-size: 9px;&quot;&gt;Verify Demo auth&lt;/font&gt;" style="text;html=1;align=center;verticalAlign=middle;resizable=0;points=[];autosize=1;strokeColor=none;fillColor=none;" parent="1" vertex="1">
          <mxGeometry x="485" y="565" width="90" height="30" as="geometry" />
        </mxCell>
        <mxCell id="bRZ4js3Sh1iDFJ2J73R_-49" value="&lt;font style=&quot;font-size: 9px;&quot;&gt;Demo auth result&lt;/font&gt;" style="text;html=1;align=center;verticalAlign=middle;resizable=0;points=[];autosize=1;strokeColor=none;fillColor=none;" parent="1" vertex="1">
          <mxGeometry x="490" y="595" width="90" height="30" as="geometry" />
        </mxCell>
        <mxCell id="bRZ4js3Sh1iDFJ2J73R_-51" value="" style="endArrow=classic;html=1;rounded=0;" parent="1" edge="1">
          <mxGeometry width="50" height="50" relative="1" as="geometry">
            <mxPoint x="460" y="640" as="sourcePoint" />
            <mxPoint x="218" y="640" as="targetPoint" />
          </mxGeometry>
        </mxCell>
        <mxCell id="bRZ4js3Sh1iDFJ2J73R_-52" value="&lt;font style=&quot;font-size: 9px;&quot;&gt;Demo auth result&lt;/font&gt;" style="text;html=1;align=center;verticalAlign=middle;resizable=0;points=[];autosize=1;strokeColor=none;fillColor=none;" parent="1" vertex="1">
          <mxGeometry x="290" y="610" width="90" height="30" as="geometry" />
        </mxCell>
        <mxCell id="bRZ4js3Sh1iDFJ2J73R_-53" value="&lt;font style=&quot;font-size: 9px;&quot;&gt;Create ABHA Number and save details&lt;/font&gt;" style="text;html=1;align=center;verticalAlign=middle;resizable=0;points=[];autosize=1;strokeColor=none;fillColor=none;" parent="1" vertex="1">
          <mxGeometry x="240" y="653" width="180" height="30" as="geometry" />
        </mxCell>
        <mxCell id="bRZ4js3Sh1iDFJ2J73R_-54" value="&lt;font style=&quot;font-size: 9px;&quot;&gt;ABHA profile details&lt;/font&gt;" style="text;html=1;align=center;verticalAlign=middle;resizable=0;points=[];autosize=1;strokeColor=none;fillColor=none;" parent="1" vertex="1">
          <mxGeometry x="285" y="696" width="100" height="30" as="geometry" />
        </mxCell>
        <mxCell id="bRZ4js3Sh1iDFJ2J73R_-55" value="&lt;font style=&quot;font-size: 9px;&quot;&gt;ABHA profile details&lt;/font&gt;" style="text;html=1;align=center;verticalAlign=middle;resizable=0;points=[];autosize=1;strokeColor=none;fillColor=none;" parent="1" vertex="1">
          <mxGeometry x="79" y="735" width="100" height="30" as="geometry" />
        </mxCell>
      </root>
    </mxGraphModel>
  </diagram>
</mxfile>
